<svg xmlns="http://www.w3.org/2000/svg" xmlns:xlink="http://www.w3.org/1999/xlink" fill="none" version="1.1" width="323" height="43" viewBox="0 0 323 43"><defs><clipPath id="master_svg0_6_300"><rect x="0" y="0" width="323" height="43" rx="21.5"/></clipPath></defs><g clip-path="url(#master_svg0_6_300)"><g><path d="M58.8174,18.918799999999997C59.263,17.75,59.3744,16.5813,59.263,15.4125C59.1516,14.24375,58.706,13.075,58.149,12.0125C57.1465,10.41875,55.6983,9.14375,54.0272,8.4C52.2449,7.65625,50.3511,7.44375,48.457300000000004,7.86875C47.5661,7.01875,46.563500000000005,6.275,45.4495,5.74375C44.335499999999996,5.2125,42.9987,5,41.7733,5C39.8795,5,37.9857,5.53125,36.4261,6.59375C34.86652,7.65625,33.75253,9.14375,33.19553,10.84375C31.85874,11.1625,30.74474,11.69375,29.63074,12.33125C28.62815,13.075,27.84835,14.03125,27.17995,14.9875C26.177374,16.5813,25.843175,18.3875,26.0659744,20.1937C26.288774,22,27.068550000000002,23.7,28.29395,25.0813C27.84835,26.25,27.73695,27.4188,27.84835,28.5875C27.95975,29.7563,28.40535,30.925,28.96235,31.9875C29.96494,33.5813,31.41314,34.856300000000005,33.08413,35.6C34.86652,36.3438,36.7603,36.5563,38.6541,36.131299999999996C39.5453,36.9812,40.5479,37.725,41.6619,38.2563C42.7759,38.7875,44.112700000000004,39,45.3381,39C47.231899999999996,39,49.125699999999995,38.4687,50.6853,37.4063C52.2449,36.3438,53.3589,34.856300000000005,53.9159,33.1563C55.1413,32.943799999999996,56.3667,32.4125,57.3692,31.6688C58.3718,30.925,59.263,30.075,59.82,29.0125C60.8226,27.4188,61.1568,25.6125,60.934,23.8063C60.7112,22,60.0428,20.3,58.8174,18.918799999999997ZM45.4495,36.7688C43.667100000000005,36.7688,42.3303,36.2375,41.1049,35.2813Q41.216300000000004,35.175,41.3277,35.175L48.457300000000004,31.2438C48.680099999999996,31.1375,48.7915,31.0313,48.9029,30.8188C49.0143,30.6063,49.0143,30.5,49.0143,30.2875L49.0143,20.725L52.022099999999995,22.425L52.022099999999995,30.2875C52.1335,34.006299999999996,49.0143,36.7688,45.4495,36.7688ZM31.07894,30.925C30.29914,29.65,29.96494,28.1625,30.29914,26.675Q30.41054,26.7813,30.52194,26.7813L37.6515,30.7125C37.8743,30.8188,37.9857,30.8188,38.2085,30.8188C38.4313,30.8188,38.6541,30.8188,38.7655,30.7125L47.4547,25.9312L47.4547,29.225L40.2137,33.2625C38.6541,34.1125,36.871700000000004,34.325,35.200720000000004,33.9C33.41833,33.475,31.97014,32.4125,31.07894,30.925ZM29.18515,16.1563C29.96494,14.88125,31.19034,13.925,32.63853,13.39375L32.63853,13.60625L32.63853,21.4688C32.63853,21.6813,32.63853,21.8938,32.74993,22C32.86133,22.2125,32.97273,22.3187,33.19553,22.425L41.8847,27.2063L38.8769,28.9063L31.74734,24.975C30.187739999999998,24.125,29.07375,22.7438,28.62815,21.15C28.18255,19.5563,28.29395,17.6438,29.18515,16.1563ZM53.804500000000004,21.575L45.115300000000005,16.7937L48.1231,15.0938L55.252700000000004,19.025C56.3667,19.6625,57.2578,20.5125,57.814800000000005,21.575C58.3718,22.6375,58.706,23.8063,58.5946,25.0813C58.4832,26.25,58.0376,27.4188,57.2578,28.375C56.478,29.3313,55.4755,30.075,54.2501,30.5L54.2501,22.425C54.2501,22.2125,54.2501,22,54.1387,21.8938Q54.0272,21.6813,53.804500000000004,21.575ZM56.812200000000004,17.325Q56.7008,17.2188,56.5894,17.2188L49.459900000000005,13.2875C49.2371,13.18125,49.125699999999995,13.18125,48.9029,13.18125C48.680099999999996,13.18125,48.457300000000004,13.18125,48.3459,13.2875L39.6567,18.0688L39.6567,14.775L46.8977,10.7375C48.011700000000005,10.1,49.2371,9.8875,50.573899999999995,9.8875C51.7993,9.8875,53.024699999999996,10.3125,54.1387,11.05625C55.1413,11.8,56.032399999999996,12.75625,56.478,13.81875C56.9236,14.88125,57.035,16.1563,56.812200000000004,17.325ZM38.0971,23.275L35.08932,21.575L35.08932,13.60625C35.08932,12.4375,35.423519999999996,11.1625,36.0919,10.20625C36.7603,9.14375,37.7629,8.4,38.8769,7.86875C39.990899999999996,7.3375,41.3277,7.125,42.5531,7.3375C43.7785,7.44375,45.0039,7.975,46.0065,8.71875Q45.8951,8.825,45.783699999999996,8.825L38.6541,12.75625C38.4313,12.8625,38.319900000000004,12.96875,38.2085,13.18125C38.0971,13.39375,38.0971,13.5,38.0971,13.7125L38.0971,23.275ZM39.6567,19.875L43.5557,17.75L47.4547,19.875L47.4547,24.125L43.5557,26.25L39.6567,24.125L39.6567,19.875Z" fill="#FFFFFF" fill-opacity="1" style="mix-blend-mode:passthrough"/></g><g><path d="M86.04599999999999,12.716L83.768,28.696L96.48400000000001,28.696L96.178,31.96L79.212,31.96Q78.226,31.96,77.733,31.314Q77.24000000000001,30.668,77.24000000000001,29.682L79.212,14.008L78.226,12.716L86.04599999999999,12.716ZM107.364,16.626L101.142,16.626L101.482,12.716L108.01,12.716L107.364,16.626ZM107.364,17.612L105.392,31.96L98.864,31.96L100.836,18.564L99.85,17.612L107.364,17.612ZM122.018,20.876L118.55,20.876L118.244,22.168L111.716,22.168L112.702,17.612L128.68200000000002,17.612L126.71,30.328L128.036,31.96L112.702,31.96Q111.716,31.96,111.223,31.314Q110.73,30.668,110.73,29.682L111.716,23.46L121.508,23.46L122.018,20.876ZM117.598,26.724L117.258,28.696L120.522,28.696L120.862,26.724L117.598,26.724ZM147.55200000000002,17.612Q148.538,17.612,149.031,18.411Q149.524,19.21,149.524,20.196L147.892,31.96L133.204,31.96Q132.21800000000002,31.96,131.725,31.314Q131.232,30.668,131.232,29.682L132.864,17.612L147.55200000000002,17.612ZM139.05200000000002,20.876L137.76,28.696L141.67000000000002,28.696L142.99599999999998,20.876L139.05200000000002,20.876ZM175.602,12.716L174.616,20.536L172.644,21.828L174.276,23.154L173.29,29.682Q173.052,30.668,172.372,31.314Q171.692,31.96,170.706,31.96L152.414,31.96L154.692,14.008L153.70600000000002,12.716L175.602,12.716ZM160.914,15.98L160.574,20.196L168.088,20.196L168.734,15.98L160.914,15.98ZM159.928,23.46L159.28199999999998,28.696L167.102,28.696L167.748,23.46L159.928,23.46ZM194.812,17.612Q195.798,17.612,196.291,18.411Q196.784,19.21,196.784,20.196L195.152,31.96L180.464,31.96Q179.478,31.96,178.985,31.314Q178.492,30.668,178.492,29.682L180.124,17.612L194.812,17.612ZM186.312,20.876L185.02,28.696L188.93,28.696L190.256,20.876L186.312,20.876ZM202.768,15.64L202.122,14.654L209.296,14.654L208.854,17.612L212.9,17.612L212.22,20.876L208.446,20.876L207.324,28.696L210.588,28.696L209.942,31.96L202.768,31.96Q201.782,31.96,201.17,31.314Q200.558,30.668,200.796,29.682L202.122,20.876L199.504,20.876L199.844,17.612L202.496,17.612L202.768,15.64ZM225.072,28.696L225.378,26.418L215.586,26.418L216.912,17.612L232.552,17.612L231.906,21.828L226.262,21.828L226.364,20.876L222.454,20.876L222.114,23.154L231.6,23.154L230.92,29.682Q230.682,30.668,229.832,31.314Q228.982,31.96,227.996,31.96L214.94,31.96L215.586,27.404L216.572,28.696L225.072,28.696ZM275.698,12.716L278.28200000000004,31.96L272.43399999999997,31.96L271.754,26.724L263.594,26.724L261.31600000000003,31.96L255.774,31.96L263.288,13.668L262.302,12.716L275.698,12.716ZM268.18399999999997,15.98L264.91999999999996,23.46L271.448,23.46L270.462,15.98L268.18399999999997,15.98ZM290.59000000000003,12.716L287.632,31.96L281.44399999999996,31.96L283.722,14.008L282.736,12.716L290.59000000000003,12.716Z" fill="#FFFFFF" fill-opacity="1"/></g></g></svg>