<svg xmlns="http://www.w3.org/2000/svg" xmlns:xlink="http://www.w3.org/1999/xlink" fill="none" version="1.1" width="156" height="156" viewBox="0 0 156 156"><defs><clipPath id="master_svg0_1_267"><rect x="0" y="0" width="156" height="156" rx="24"/></clipPath></defs><g clip-path="url(#master_svg0_1_267)"><rect x="0" y="0" width="156" height="156" rx="24" fill="#FFFFFF" fill-opacity="1"/><g><path d="M123.5998861328125,54.330626416015626C124.9064861328125,50.80262641601563,125.2331861328125,47.274726416015625,124.9064861328125,43.746726416015626C124.5797861328125,40.218826416015624,123.2731861328125,36.690826416015625,121.6398861328125,33.483626416015625C118.6999861328125,28.672726416015625,114.4533861328125,24.824026416015627,109.5534861328125,22.579026416015623C104.3268861328125,20.333916416015626,98.7736861328125,19.692476416015623,93.2203861328125,20.975366416015625C90.6071861328125,18.409576416015625,87.6671861328125,16.164506416015627,84.40058613281249,14.560896416015625C81.13398613281251,12.957273416015624,77.2140861328125,12.315826416015625,73.6207861328125,12.315826416015625C68.0675861328125,12.315826416015625,62.5143861328125,13.919446416015624,57.9410861328125,17.126676416015627C53.3678861328125,20.333916416015626,50.101286132812504,24.824026416015627,48.4679861328125,29.955626416015626C44.5479861328125,30.917826416015625,41.2813861328125,32.52142641601563,38.0147861328125,34.445726416015624C35.0748861328125,36.690826416015625,32.7882561328125,39.57732641601562,30.8282961328125,42.46382641601562C27.8884051328125,47.274726416015625,26.9084241328125,52.727026416015626,27.5617451328125,58.17932641601563C28.2150661328125,63.63162641601563,30.5016361328125,68.76322641601563,34.0948961328125,72.93262641601562C32.7882561328125,76.46052641601563,32.4615961328125,79.98852641601563,32.7882561328125,83.51652641601562C33.114916132812496,87.04442641601563,34.4215561328125,90.57242641601563,36.0548661328125,93.77962641601563C38.9947861328125,98.59052641601562,43.2413861328125,102.43922641601563,48.141286132812496,104.68422641601562C53.3678861328125,106.92932641601563,58.921086132812505,107.57072641601563,64.4742861328125,106.28782641601562C67.0875861328125,108.85362641601563,70.0275861328125,111.09872641601562,73.2941861328125,112.70282641601563C76.5607861328125,114.30582641601562,80.48068613281251,114.94782641601563,84.07398613281251,114.94782641601563C89.6271861328125,114.94782641601563,95.1803861328125,113.34382641601563,99.7536861328125,110.13652641601563C104.3268861328125,106.92932641601563,107.5934861328125,102.43922641601563,109.2267861328125,97.30762641601562C112.8200861328125,96.66612641601563,116.4132861328125,95.06252641601563,119.3532861328125,92.81742641601562C122.2931861328125,90.57242641601563,124.9064861328125,88.00662641601562,126.5397861328125,84.79942641601562C129.4792861328125,79.98852641601563,130.4592861328125,74.53622641601562,129.8062861328125,69.08392641601563C129.1532861328125,63.63162641601563,127.1930861328125,58.50002641601562,123.5998861328125,54.330626416015626ZM84.40058613281249,108.21222641601562C79.1739861328125,108.21222641601562,75.2540861328125,106.60862641601562,71.6608861328125,103.72202641601562Q71.9874861328125,103.40132641601562,72.3141861328125,103.40132641601562L93.2203861328125,91.53462641601563C93.8737861328125,91.21382641601562,94.2003861328125,90.89312641601562,94.5270861328125,90.25172641601563C94.8536861328125,89.61022641601562,94.8536861328125,89.28952641601562,94.8536861328125,88.64802641601563L94.8536861328125,59.78292641601563L103.6735861328125,64.91452641601563L103.6735861328125,88.64802641601563C104.0001861328125,99.87342641601562,94.8536861328125,108.21222641601562,84.40058613281249,108.21222641601562ZM42.261386132812504,90.57242641601563C39.9747861328125,86.72372641601562,38.9947861328125,82.23362641601562,39.9747861328125,77.74342641601562Q40.3014861328125,78.06422641601563,40.6280861328125,78.06422641601563L61.5343861328125,89.93092641601562C62.1876861328125,90.25172641601563,62.5143861328125,90.25172641601563,63.1676861328125,90.25172641601563C63.8209861328125,90.25172641601563,64.4742861328125,90.25172641601563,64.8009861328125,89.93092641601562L90.2804861328125,75.49842641601563L90.2804861328125,85.44082641601562L69.0475861328125,97.62832641601562C64.4742861328125,100.19412641601562,59.2477861328125,100.83552641601563,54.347886132812505,99.55262641601563C49.1212861328125,98.26972641601563,44.8746861328125,95.06252641601563,42.261386132812504,90.57242641601563ZM36.7081861328125,45.99182641601563C38.9947861328125,42.143126416015626,42.5880861328125,39.25662641601562,46.8346861328125,37.65302641601562L46.8346861328125,38.294426416015625L46.8346861328125,62.02802641601563C46.8346861328125,62.669426416015625,46.8346861328125,63.310926416015626,47.1612861328125,63.63162641601563C47.4879861328125,64.27302641601563,47.8146861328125,64.59382641601562,48.4679861328125,64.91452641601563L73.9474861328125,79.34702641601562L65.1275861328125,84.47862641601563L44.2213861328125,72.61192641601562C39.6480861328125,70.04612641601562,36.381526132812496,65.87672641601563,35.0748861328125,61.065826416015625C33.7682361328125,56.25492641601563,34.0948961328125,50.481926416015625,36.7081861328125,45.99182641601563ZM108.9000861328125,62.34872641601562L83.4205861328125,47.91612641601562L92.2404861328125,42.78462641601563L113.1466861328125,54.65132641601563C116.4132861328125,56.57572641601563,119.0265861328125,59.14152641601562,120.6598861328125,62.34872641601562C122.2931861328125,65.55592641601562,123.2731861328125,69.08392641601563,122.9464861328125,72.93262641601562C122.6198861328125,76.46052641601563,121.3131861328125,79.98852641601563,119.0265861328125,82.87502641601563C116.7399861328125,85.76152641601563,113.7999861328125,88.00662641601562,110.2067861328125,89.28952641601562L110.2067861328125,64.91452641601563C110.2067861328125,64.27302641601563,110.2067861328125,63.63162641601563,109.8800861328125,63.310926416015626Q109.5534861328125,62.669426416015625,108.9000861328125,62.34872641601562ZM117.7199861328125,49.51972641601562Q117.3932861328125,49.19902641601563,117.0666861328125,49.19902641601563L96.1603861328125,37.33222641601563C95.5070861328125,37.01152641601563,95.1803861328125,37.01152641601563,94.5270861328125,37.01152641601563C93.8737861328125,37.01152641601563,93.2203861328125,37.01152641601563,92.8937861328125,37.33222641601563L67.41428613281249,51.76482641601562L67.41428613281249,41.822426416015624L88.6471861328125,29.634926416015624C91.9137861328125,27.710526416015625,95.5070861328125,27.069126416015624,99.4269861328125,27.069126416015624C103.0202861328125,27.069126416015624,106.6134861328125,28.352026416015626,109.8800861328125,30.597126416015627C112.8200861328125,32.842126416015624,115.4333861328125,35.72862641601563,116.7399861328125,38.935926416015626C118.0465861328125,42.143126416015626,118.3732861328125,45.99182641601563,117.7199861328125,49.51972641601562ZM62.8409861328125,67.48032641601563L54.0211861328125,62.34872641601562L54.0211861328125,38.294426416015625C54.0211861328125,34.76652641601562,55.0011861328125,30.917826416015625,56.9610861328125,28.031326416015624C58.921086132812505,24.824026416015627,61.8609861328125,22.579026416015623,65.1275861328125,20.975366416015625C68.39428613281251,19.371746416015625,72.3141861328125,18.730296416015626,75.90738613281249,19.371746416015625C79.50068613281249,19.692476416015623,83.0939861328125,21.296086416015626,86.0338861328125,23.541126416015626Q85.7072861328125,23.861926416015624,85.38058613281251,23.861926416015624L64.4742861328125,35.72862641601563C63.8209861328125,36.04942641601562,63.4942861328125,36.37012641601562,63.1676861328125,37.01152641601563C62.8409861328125,37.65302641601562,62.8409861328125,37.97372641601562,62.8409861328125,38.61512641601563L62.8409861328125,67.48032641601563ZM67.41428613281249,57.217126416015624L78.8473861328125,50.80262641601563L90.2804861328125,57.217126416015624L90.2804861328125,70.04612641601562L78.8473861328125,76.46052641601563L67.41428613281249,70.04612641601562L67.41428613281249,57.217126416015624Z" fill="#A6A6A6" fill-opacity="1" style="mix-blend-mode:passthrough"/></g><g><path d="M32.403999999999996,129.984L31.332,137.504L37.316,137.504L37.172,139.04L29.188,139.04Q28.724,139.04,28.492,138.736Q28.26,138.432,28.26,137.968L29.188,130.592L28.724,129.984L32.403999999999996,129.984ZM42.436,131.824L39.507999999999996,131.824L39.668,129.984L42.74,129.984L42.436,131.824ZM42.436,132.288L41.507999999999996,139.04L38.436,139.04L39.364000000000004,132.736L38.9,132.288L42.436,132.288ZM49.332,133.824L47.7,133.824L47.556,134.432L44.484,134.432L44.948,132.288L52.468,132.288L51.54,138.272L52.164,139.04L44.948,139.04Q44.484,139.04,44.251999999999995,138.736Q44.019999999999996,138.432,44.019999999999996,137.968L44.484,135.04L49.092,135.04L49.332,133.824ZM47.251999999999995,136.576L47.092,137.504L48.628,137.504L48.788,136.576L47.251999999999995,136.576ZM61.348,132.288Q61.812,132.288,62.044,132.664Q62.276,133.04,62.276,133.504L61.508,139.04L54.596000000000004,139.04Q54.132000000000005,139.04,53.9,138.736Q53.668,138.432,53.668,137.968L54.436,132.288L61.348,132.288ZM57.348,133.824L56.739999999999995,137.504L58.58,137.504L59.204,133.824L57.348,133.824ZM74.548,129.984L74.084,133.664L73.156,134.272L73.924,134.89600000000002L73.46000000000001,137.968Q73.348,138.432,73.02799999999999,138.736Q72.708,139.04,72.244,139.04L63.636,139.04L64.708,130.592L64.244,129.984L74.548,129.984ZM67.636,131.52L67.476,133.504L71.012,133.504L71.316,131.52L67.636,131.52ZM67.172,135.04L66.868,137.504L70.548,137.504L70.852,135.04L67.172,135.04ZM83.588,132.288Q84.05199999999999,132.288,84.28399999999999,132.664Q84.51599999999999,133.04,84.51599999999999,133.504L83.74799999999999,139.04L76.836,139.04Q76.372,139.04,76.14,138.736Q75.908,138.432,75.908,137.968L76.676,132.288L83.588,132.288ZM79.588,133.824L78.97999999999999,137.504L80.82,137.504L81.444,133.824L79.588,133.824ZM87.332,131.36L87.02799999999999,130.896L90.404,130.896L90.196,132.288L92.1,132.288L91.78,133.824L90.00399999999999,133.824L89.476,137.504L91.012,137.504L90.708,139.04L87.332,139.04Q86.868,139.04,86.58,138.736Q86.292,138.432,86.404,137.968L87.02799999999999,133.824L85.79599999999999,133.824L85.956,132.288L87.20400000000001,132.288L87.332,131.36ZM97.828,137.504L97.972,136.432L93.364,136.432L93.988,132.288L101.348,132.288L101.044,134.272L98.388,134.272L98.436,133.824L96.596,133.824L96.436,134.89600000000002L100.9,134.89600000000002L100.58,137.968Q100.468,138.432,100.068,138.736Q99.668,139.04,99.204,139.04L93.06,139.04L93.364,136.89600000000002L93.828,137.504L97.828,137.504ZM121.652,129.984L122.868,139.04L120.116,139.04L119.796,136.576L115.956,136.576L114.884,139.04L112.276,139.04L115.812,130.432L115.348,129.984L121.652,129.984ZM118.116,131.52L116.58,135.04L119.652,135.04L119.188,131.52L118.116,131.52ZM128.66,129.984L127.268,139.04L124.356,139.04L125.428,130.592L124.964,129.984L128.66,129.984Z" fill="#3D3D3D" fill-opacity="1"/></g></g></svg>