<svg xmlns="http://www.w3.org/2000/svg" xmlns:xlink="http://www.w3.org/1999/xlink" fill="none" version="1.1" width="410" height="124" viewBox="0 0 410 124"><defs><clipPath id="master_svg0_6_16"><rect x="0" y="0" width="410" height="124" rx="24"/></clipPath></defs><g clip-path="url(#master_svg0_6_16)"><g><path d="M109.0113,56.9313C110.0298,54.25,110.2844,51.568799999999996,110.0298,48.8875C109.7752,46.2063,108.7567,43.525,107.4835,41.0875C105.1919,37.4313,101.8817,34.50625,98.0623,32.8C93.98830000000001,31.09375,89.6596,30.60625,85.3309,31.58125C83.29390000000001,29.63125,81.0022,27.925,78.456,26.70625C75.9097,25.4875,72.8541,25,70.0532,25C65.7246,25,61.3959,26.21875,57.8311,28.65625C54.2663,31.09375,51.7201,34.50625,50.4469,38.4063C47.391400000000004,39.1375,44.8451,40.3563,42.29884,41.818799999999996C40.00719,43.525,38.2248,45.7188,36.69703,47.9125C34.405426,51.568799999999996,33.641543,55.7125,34.150799,59.8562C34.660054,64,36.44241,67.9,39.24331,71.06880000000001C38.2248,73.75,37.97017,76.4313,38.2248,79.1125C38.47943,81.7938,39.49794,84.475,40.77108,86.9125C43.06272,90.5688,46.3729,93.4938,50.1923,95.2C54.2663,96.9063,58.595,97.3938,62.9237,96.4188C64.9607,98.3687,67.25229999999999,100.075,69.7986,101.2938C72.3449,102.5125,75.40039999999999,103,78.2013,103C82.53,103,86.8587,101.7812,90.42349999999999,99.3438C93.98830000000001,96.9063,96.53450000000001,93.4938,97.8077,89.5938C100.6086,89.1063,103.4095,87.8875,105.7011,86.1813C107.9928,84.475,110.0298,82.525,111.3029,80.0875C113.5946,76.4313,114.3584,72.2875,113.8492,68.1438C113.3399,64,111.8122,60.1,109.0113,56.9313ZM78.456,97.8813C74.3819,97.8813,71.3264,96.6625,68.5255,94.4688Q68.7801,94.225,69.0347,94.225L85.3309,85.2063C85.84020000000001,84.9625,86.09479999999999,84.7188,86.3494,84.2313C86.604,83.7438,86.604,83.5,86.604,83.0125L86.604,61.075L93.479,64.975L93.479,83.0125C93.7336,91.5438,86.604,97.8813,78.456,97.8813ZM45.609,84.475C43.82661,81.55,43.06272,78.1375,43.82661,74.725Q44.0812,74.9688,44.3359,74.9688L60.632000000000005,83.9875C61.1413,84.2313,61.3959,84.2313,61.9052,84.2313C62.4144,84.2313,62.9237,84.2313,63.1783,83.9875L83.0393,73.0187L83.0393,80.575L66.4885,89.8375C62.9237,91.7875,58.849599999999995,92.275,55.0302,91.3C50.956199999999995,90.325,47.646,87.8875,45.609,84.475ZM41.28033,50.5938C43.06272,47.668800000000005,45.8636,45.475,49.1738,44.2562L49.1738,44.7438L49.1738,62.7813C49.1738,63.2688,49.1738,63.7563,49.428399999999996,64C49.683,64.4875,49.9377,64.7312,50.4469,64.975L70.30789999999999,75.94380000000001L63.432900000000004,79.8438L47.1368,70.825C43.571979999999996,68.875,41.0257,65.7063,40.00719,62.05C38.98868,58.3938,39.24331,54.006299999999996,41.28033,50.5938ZM97.553,63.025L77.69210000000001,52.056200000000004L84.56700000000001,48.1563L100.8632,57.175C103.4095,58.6375,105.4465,60.5875,106.7196,63.025C107.9928,65.4625,108.7567,68.1438,108.502,71.06880000000001C108.2474,73.75,107.2289,76.4313,105.4465,78.625C103.6641,80.81880000000001,101.3725,82.525,98.5716,83.5L98.5716,64.975C98.5716,64.4875,98.5716,64,98.3169,63.7563Q98.0623,63.2688,97.553,63.025ZM104.428,53.275Q104.1734,53.0313,103.9187,53.0313L87.6226,44.0125C87.11330000000001,43.7688,86.8587,43.7688,86.3494,43.7688C85.84020000000001,43.7688,85.3309,43.7688,85.0763,44.0125L65.2153,54.981300000000005L65.2153,47.425L81.7661,38.1625C84.3124,36.7,87.11330000000001,36.2125,90.1688,36.2125C92.9697,36.2125,95.7707,37.1875,98.3169,38.8938C100.6086,40.6,102.6456,42.793800000000005,103.6641,45.231300000000005C104.6826,47.668800000000005,104.9372,50.5938,104.428,53.275ZM61.6505,66.925L54.7756,63.025L54.7756,44.7438C54.7756,42.0625,55.539500000000004,39.1375,57.0672,36.943799999999996C58.595,34.50625,60.886700000000005,32.8,63.432900000000004,31.58125C65.97919999999999,30.3625,69.0347,29.875,71.8356,30.3625C74.6365,30.60625,77.4375,31.825,79.7291,33.53125Q79.4745,33.775,79.21979999999999,33.775L62.9237,42.793800000000005C62.4144,43.0375,62.159800000000004,43.2813,61.9052,43.7688C61.6505,44.2562,61.6505,44.5,61.6505,44.9875L61.6505,66.925ZM65.2153,59.125L74.12729999999999,54.25L83.0393,59.125L83.0393,68.875L74.12729999999999,73.75L65.2153,68.875L65.2153,59.125Z" fill="#A6A6A6" fill-opacity="1" style="mix-blend-mode:passthrough"/></g><g><path d="M152.57,52.22L150.56,66.32L161.78,66.32L161.51,69.2L146.54,69.2Q145.67000000000002,69.2,145.235,68.63Q144.8,68.06,144.8,67.19L146.54,53.36L145.67000000000002,52.22L152.57,52.22ZM171.38,55.67L165.89,55.67L166.19,52.22L171.95,52.22L171.38,55.67ZM171.38,56.54L169.64,69.2L163.88,69.2L165.62,57.379999999999995L164.75,56.54L171.38,56.54ZM184.31,59.42L181.25,59.42L180.98000000000002,60.56L175.22,60.56L176.09,56.54L190.19,56.54L188.45,67.76L189.62,69.2L176.09,69.2Q175.22,69.2,174.785,68.63Q174.35,68.06,174.35,67.19L175.22,61.7L183.86,61.7L184.31,59.42ZM180.41,64.58L180.11,66.32L182.99,66.32L183.29000000000002,64.58L180.41,64.58ZM206.84,56.54Q207.70999999999998,56.54,208.14499999999998,57.245000000000005Q208.57999999999998,57.95,208.57999999999998,58.82L207.14,69.2L194.18,69.2Q193.31,69.2,192.875,68.63Q192.44,68.06,192.44,67.19L193.88,56.54L206.84,56.54ZM199.34,59.42L198.2,66.32L201.65,66.32L202.82,59.42L199.34,59.42ZM231.59,52.22L230.72,59.120000000000005L228.98,60.260000000000005L230.42,61.43L229.55,67.19Q229.34,68.06,228.74,68.63Q228.14,69.2,227.27,69.2L211.13,69.2L213.14,53.36L212.26999999999998,52.22L231.59,52.22ZM218.63,55.1L218.32999999999998,58.82L224.96,58.82L225.53,55.1L218.63,55.1ZM217.76,61.7L217.19,66.32L224.09,66.32L224.66,61.7L217.76,61.7ZM248.54,56.54Q249.41,56.54,249.845,57.245000000000005Q250.28,57.95,250.28,58.82L248.84,69.2L235.88,69.2Q235.01,69.2,234.575,68.63Q234.14,68.06,234.14,67.19L235.58,56.54L248.54,56.54ZM241.04,59.42L239.9,66.32L243.35,66.32L244.52,59.42L241.04,59.42ZM255.56,54.8L254.99,53.93L261.32,53.93L260.93,56.54L264.5,56.54L263.9,59.42L260.57,59.42L259.58000000000004,66.32L262.46000000000004,66.32L261.89,69.2L255.56,69.2Q254.69,69.2,254.15,68.63Q253.61,68.06,253.82,67.19L254.99,59.42L252.68,59.42L252.98,56.54L255.32,56.54L255.56,54.8ZM275.24,66.32L275.51,64.31L266.87,64.31L268.03999999999996,56.54L281.84000000000003,56.54L281.27,60.260000000000005L276.28999999999996,60.260000000000005L276.38,59.42L272.93,59.42L272.63,61.43L281,61.43L280.4,67.19Q280.19,68.06,279.44,68.63Q278.69,69.2,277.82,69.2L266.3,69.2L266.87,65.18L267.74,66.32L275.24,66.32ZM319.90999999999997,52.22L322.19,69.2L317.03,69.2L316.43,64.58L309.23,64.58L307.22,69.2L302.33000000000004,69.2L308.96000000000004,53.06L308.09000000000003,52.22L319.90999999999997,52.22ZM313.28,55.1L310.4,61.7L316.15999999999997,61.7L315.28999999999996,55.1L313.28,55.1ZM333.05,52.22L330.44,69.2L324.98,69.2L326.99,53.36L326.12,52.22L333.05,52.22Z" fill="#3D3D3D" fill-opacity="1"/></g></g></svg>