<svg xmlns="http://www.w3.org/2000/svg" xmlns:xlink="http://www.w3.org/1999/xlink" fill="none" version="1.1" width="407" height="113" viewBox="0 0 407 113"><defs><clipPath id="master_svg0_6_16"><rect x="0" y="0" width="407" height="113" rx="24"/></clipPath></defs><g clip-path="url(#master_svg0_6_16)"><g><path d="M82.5079,51.153099999999995C83.2209,49.125,83.3991,47.096900000000005,83.2209,45.068799999999996C83.0426,43.0406,82.3297,41.0125,81.4385,39.1688C79.8343,36.403130000000004,77.5172,34.19063,74.84360000000001,32.9C71.9918,31.60938,68.96170000000001,31.24063,65.9316,31.97813C64.50569999999999,30.50313,62.9016,29.2125,61.1192,28.29062C59.3368,27.36875,57.197900000000004,27,55.237300000000005,27C52.2072,27,49.177099999999996,27.921875,46.681799999999996,29.76563C44.1864,31.60938,42.403999999999996,34.19063,41.5128,37.1406C39.37398,37.693799999999996,37.59158,38.6156,35.80919,39.7219C34.20504,41.0125,32.95736,42.6719,31.88792,44.3313C30.283798,47.096900000000005,29.74908,50.231300000000005,30.105559,53.3656C30.462038,56.5,31.70968,59.45,33.67032,61.8469C32.95736,63.875,32.77912,65.9031,32.95736,67.93119999999999C33.1356,69.9594,33.84856,71.9875,34.73975,73.8313C36.34391,76.5969,38.66102,78.8094,41.3346,80.1C44.1864,81.3906,47.216499999999996,81.7594,50.2466,81.0219C51.6725,82.4969,53.2766,83.7875,55.059,84.7094C56.8414,85.63130000000001,58.9803,86,60.9409,86C63.971,86,67.00110000000001,85.0781,69.4964,83.2344C71.9918,81.3906,73.77420000000001,78.8094,74.6654,75.8594C76.626,75.4906,78.5866,74.56880000000001,80.1908,73.2781C81.7949,71.9875,83.2209,70.5125,84.112,68.6688C85.7162,65.9031,86.2509,62.7687,85.89439999999999,59.6344C85.538,56.5,84.4685,53.55,82.5079,51.153099999999995ZM61.1192,82.1281C58.2673,82.1281,56.1285,81.2063,54.1678,79.5469Q54.3461,79.3625,54.5243,79.3625L65.9316,72.5406C66.2881,72.3563,66.4664,72.1719,66.6446,71.8031C66.8228,71.4344,66.8228,71.25,66.8228,70.88130000000001L66.8228,54.2875L71.6353,57.2375L71.6353,70.88130000000001C71.8135,77.3344,66.8228,82.1281,61.1192,82.1281ZM38.1263,71.9875C36.87862,69.775,36.34391,67.19380000000001,36.87862,64.6125Q37.05686,64.7969,37.23511,64.7969L48.642399999999995,71.6188C48.9989,71.8031,49.177099999999996,71.8031,49.5336,71.8031C49.890100000000004,71.8031,50.2466,71.8031,50.424800000000005,71.6188L64.3275,63.3219L64.3275,69.0375L52.7419,76.0438C50.2466,77.5188,47.3947,77.8875,44.721199999999996,77.15C41.8693,76.4125,39.55222,74.56880000000001,38.1263,71.9875ZM35.09623,46.3594C36.34391,44.1469,38.30454,42.4875,40.621700000000004,41.5656L40.621700000000004,41.9344L40.621700000000004,55.5781C40.621700000000004,55.9469,40.621700000000004,56.3156,40.7999,56.5C40.9781,56.8688,41.1564,57.0531,41.5128,57.2375L55.4155,65.5344L50.6031,68.4844L39.19574,61.6625C36.70039,60.1875,34.91799,57.7906,34.20504,55.025C33.49208,52.2594,33.67032,48.9406,35.09623,46.3594ZM74.4871,55.7625L60.5845,47.465599999999995L65.3969,44.5156L76.80420000000001,51.3375C78.5866,52.443799999999996,80.0125,53.918800000000005,80.90379999999999,55.7625C81.7949,57.606300000000005,82.3297,59.6344,82.1514,61.8469C81.97319999999999,63.875,81.2602,65.9031,80.0125,67.5625C78.7649,69.2219,77.16069999999999,70.5125,75.20009999999999,71.25L75.20009999999999,57.2375C75.20009999999999,56.8688,75.20009999999999,56.5,75.0218,56.3156Q74.84360000000001,55.9469,74.4871,55.7625ZM79.2996,48.3875Q79.1214,48.2031,78.9431,48.2031L67.5358,41.381299999999996C67.1793,41.1969,67.00110000000001,41.1969,66.6446,41.1969C66.2881,41.1969,65.9316,41.1969,65.7534,41.381299999999996L51.8507,49.6781L51.8507,43.9625L63.4363,36.95625C65.2187,35.85,67.1793,35.48125,69.31819999999999,35.48125C71.27879999999999,35.48125,73.23949999999999,36.21875,75.0218,37.5094C76.626,38.8,78.0519,40.4594,78.7649,42.3031C79.4778,44.1469,79.65610000000001,46.3594,79.2996,48.3875ZM49.3554,58.7125L44.5429,55.7625L44.5429,41.9344C44.5429,39.9062,45.077600000000004,37.693799999999996,46.147099999999995,36.03438C47.216499999999996,34.19063,48.8207,32.9,50.6031,31.97813C52.3855,31.05625,54.5243,30.6875,56.485,31.05625C58.4456,31.24063,60.4062,32.1625,62.0104,33.45312Q61.8321,33.6375,61.6539,33.6375L50.2466,40.4594C49.890100000000004,40.6438,49.7119,40.8281,49.5336,41.1969C49.3554,41.5656,49.3554,41.75,49.3554,42.1188L49.3554,58.7125ZM51.8507,52.8125L58.0891,49.125L64.3275,52.8125L64.3275,60.1875L58.0891,63.875L51.8507,60.1875L51.8507,52.8125Z" fill="#A6A6A6" fill-opacity="1" style="mix-blend-mode:passthrough"/></g><g><path d="M118.75999999999999,47.96L116.08,66.75999999999999L131.04,66.75999999999999L130.68,70.6L110.72,70.6Q109.56,70.6,108.98,69.84Q108.4,69.08,108.4,67.92L110.72,49.480000000000004L109.56,47.96L118.75999999999999,47.96ZM143.84,52.56L136.52,52.56L136.92000000000002,47.96L144.6,47.96L143.84,52.56ZM143.84,53.72L141.52,70.6L133.84,70.6L136.16,54.84L135,53.72L143.84,53.72ZM161.07999999999998,57.56L157,57.56L156.64,59.08L148.96,59.08L150.12,53.72L168.92000000000002,53.72L166.6,68.68L168.16,70.6L150.12,70.6Q148.96,70.6,148.38,69.84Q147.8,69.08,147.8,67.92L148.96,60.6L160.48000000000002,60.6L161.07999999999998,57.56ZM155.88,64.44L155.48000000000002,66.75999999999999L159.32,66.75999999999999L159.72,64.44L155.88,64.44ZM191.12,53.72Q192.28,53.72,192.86,54.66Q193.44,55.6,193.44,56.760000000000005L191.51999999999998,70.6L174.24,70.6Q173.07999999999998,70.6,172.5,69.84Q171.92000000000002,69.08,171.92000000000002,67.92L173.84,53.72L191.12,53.72ZM181.12,57.56L179.6,66.75999999999999L184.2,66.75999999999999L185.76,57.56L181.12,57.56ZM224.12,47.96L222.96,57.16L220.64,58.68L222.56,60.239999999999995L221.4,67.92Q221.12,69.08,220.32,69.84Q219.52,70.6,218.36,70.6L196.84,70.6L199.51999999999998,49.480000000000004L198.36,47.96L224.12,47.96ZM206.84,51.8L206.44,56.760000000000005L215.28,56.760000000000005L216.04,51.8L206.84,51.8ZM205.68,60.6L204.92000000000002,66.75999999999999L214.12,66.75999999999999L214.88,60.6L205.68,60.6ZM246.72,53.72Q247.88,53.72,248.46,54.66Q249.04,55.6,249.04,56.760000000000005L247.12,70.6L229.84,70.6Q228.68,70.6,228.1,69.84Q227.52,69.08,227.52,67.92L229.44,53.72L246.72,53.72ZM236.72,57.56L235.2,66.75999999999999L239.8,66.75999999999999L241.36,57.56L236.72,57.56ZM256.08000000000004,51.4L255.32,50.239999999999995L263.76,50.239999999999995L263.24,53.72L268,53.72L267.2,57.56L262.76,57.56L261.44,66.75999999999999L265.28,66.75999999999999L264.52,70.6L256.08000000000004,70.6Q254.92,70.6,254.2,69.84Q253.48,69.08,253.76,67.92L255.32,57.56L252.24,57.56L252.64,53.72L255.76,53.72L256.08000000000004,51.4ZM282.32,66.75999999999999L282.68,64.08L271.15999999999997,64.08L272.72,53.72L291.12,53.72L290.36,58.68L283.72,58.68L283.84000000000003,57.56L279.24,57.56L278.84000000000003,60.239999999999995L290,60.239999999999995L289.2,67.92Q288.91999999999996,69.08,287.91999999999996,69.84Q286.91999999999996,70.6,285.76,70.6L270.4,70.6L271.15999999999997,65.24000000000001L272.32,66.75999999999999L282.32,66.75999999999999ZM341.88,47.96L344.92,70.6L338.03999999999996,70.6L337.24,64.44L327.64,64.44L324.96000000000004,70.6L318.44,70.6L327.28,49.08L326.12,47.96L341.88,47.96ZM333.03999999999996,51.8L329.2,60.6L336.88,60.6L335.72,51.8L333.03999999999996,51.8ZM359.4,47.96L355.92,70.6L348.64,70.6L351.32,49.480000000000004L350.16,47.96L359.4,47.96Z" fill="#3D3D3D" fill-opacity="1"/></g></g></svg>